HIERARCHY
ROOT Elbow
{
	OFFSET	0.00	0.00	0.00
	CHANNELS 6 Xposition Yposition Zposition Zrotation Xrotation Yrotation
	JOINT L_Wrist
	{
		OFFSET	 0.208349	 0.000000	 0.000000
		CHANNELS 3 Zrotation Xrotation Yrotation
		JOINT L_index_Proximal
		{
			OFFSET	 0.093499	 0.010637	-0.002084
			CHANNELS 3 Zrotation Xrotation Yrotation
			JOINT L_index_b
			{
				OFFSET	 0.033152	 0.000000	 0.000000
				CHANNELS 3 Zrotation Xrotation Yrotation
				JOINT L_index_c
				{
					OFFSET	 0.018651	 0.000000	 0.000000
					CHANNELS 3 Zrotation Xrotation Yrotation
					End Site
					{
						OFFSET	 0.018651	 0.000000	 0.000000
					}
				}
			}
		}
		JOINT L_middle_Proximal
		{
			OFFSET	 0.090632	-0.006115	-0.003750
			CHANNELS 3 Zrotation Xrotation Yrotation
			JOINT L_middle_b
			{
				OFFSET	 0.037195	 0.000000	 0.000000
				CHANNELS 3 Zrotation Xrotation Yrotation
				JOINT L_middle_c
				{
					OFFSET	 0.021943	 0.000000	 0.000000
					CHANNELS 3 Zrotation Xrotation Yrotation
					End Site
					{
						OFFSET	 0.021943	 0.000000	 0.000000
					}
				}
			}
		}
		JOINT L_pinky_Proximal
		{
			OFFSET	 0.074015	-0.035449	-0.000417
			CHANNELS 3 Zrotation Xrotation Yrotation
			JOINT L_pinky_b
			{
				OFFSET	 0.027285	 0.000000	 0.000000
				CHANNELS 3 Zrotation Xrotation Yrotation
				JOINT L_pinky_c
				{
					OFFSET	 0.015093	 0.000000	 0.000000
					CHANNELS 3 Zrotation Xrotation Yrotation
					End Site
					{
						OFFSET	 0.015093	 0.000000	 0.000000
					}
				}
			}
		}
		JOINT L_ring_Proximal
		{
			OFFSET	 0.082801	-0.021859	-0.003750
			CHANNELS 3 Zrotation Xrotation Yrotation
			JOINT L_ring_b
			{
				OFFSET	 0.034478	 0.000000	 0.000000
				CHANNELS 3 Zrotation Xrotation Yrotation
				JOINT L_ring_c
				{
					OFFSET	 0.021377	 0.000000	 0.000000
					CHANNELS 3 Zrotation Xrotation Yrotation
					End Site
					{
						OFFSET	 0.021377	 0.000000	 0.000000
					}
				}
			}
		}
		JOINT L_thumb_Proximal
		{
			OFFSET	 0.030306	 0.018528	 0.004584
			CHANNELS 3 Zrotation Xrotation Yrotation
			JOINT L_thumb_a
			{
				OFFSET	 0.038520	 0.000000	 0.000000
				CHANNELS 3 Zrotation Xrotation Yrotation
				JOINT L_thumb_b
				{
					OFFSET	 0.026310	 0.000000	 0.000000
					CHANNELS 3 Zrotation Xrotation Yrotation
					End Site
					{
						OFFSET	 0.026310	 0.000000	 0.000000
					}
				}
			}
		}
	}
}
MOTION
Frames:    19
Frame Time: 0.01666667
 0.481500	-0.177813	 0.738375	 79.319080	 28.737050	 8.832376	 17.660710	-0.550388	-3.122973	-16.543200	 4.924811	-25.076590	-4.691781	 1.323327	-31.487080	-2.824221	 0.368111	-14.848950	-27.177640	-5.085962	-13.579590	-0.029667	 0.003870	-14.861430	-0.834510	 0.048674	-6.675719	-26.277520	-19.914750	-17.859260	 0.294895	-0.047139	-18.163800	 1.108810	-0.078719	-8.121558	-26.441510	-9.908799	-14.302390	-2.393451	 0.288966	-13.766220	 0.979485	-0.058561	-6.842803	 56.015260	 59.519360	-22.156200	-4.745758	 0.902902	-21.532880	-7.058513	 3.419680	-51.654390
 0.481085	-0.177862	 0.738585	 79.167500	 28.932880	 8.863225	 17.568110	-0.566801	-3.216308	-16.455720	 4.782241	-24.325350	-4.450051	 1.207783	-30.356110	-2.678618	 0.331076	-14.089580	-27.248230	-5.010448	-13.960770	 0.025668	-0.003346	-14.863520	-0.838579	 0.048543	-6.626163	-26.072580	-19.955050	-17.743830	 0.257700	-0.041117	-18.130800	 1.072632	-0.076451	-8.153611	-26.355450	-9.933808	-14.189470	-2.488178	 0.300935	-13.790230	 0.981899	-0.059197	-6.900054	 55.528380	 59.686110	-21.567720	-4.766171	 0.906756	-21.531700	-7.007725	 3.367845	-51.294140
 0.480629	-0.177861	 0.738710	 79.027930	 29.085380	 8.907746	 17.475590	-0.589843	-3.347193	-16.371100	 4.645329	-23.594440	-4.131539	 1.083363	-29.375080	-2.367727	 0.278629	-13.421090	-27.238450	-4.989976	-14.100150	 0.076277	-0.009935	-14.839110	-0.826122	 0.047702	-6.609186	-25.908730	-19.987080	-17.661900	 0.278395	-0.044363	-18.110440	 1.084464	-0.076988	-8.120840	-26.267230	-9.955181	-14.134140	-2.496106	 0.301722	-13.782560	 1.025041	-0.062055	-6.928350	 55.159850	 59.813750	-21.099850	-4.715728	 0.897354	-21.535940	-6.883551	 3.272738	-50.815900
 0.480381	-0.177800	 0.738725	 78.947400	 29.186570	 8.941074	 17.427040	-0.597147	-3.388673	-16.416050	 4.578842	-23.072140	-4.241176	 1.082022	-28.612730	-2.573974	 0.295774	-13.108050	-27.239170	-4.971441	-14.214220	 0.078613	-0.010285	-14.905930	-0.836438	 0.048594	-6.649908	-25.798050	-20.008500	-17.599440	 0.306687	-0.048830	-18.093060	 1.085539	-0.076855	-8.099331	-26.214890	-9.966147	-14.126510	-2.488362	 0.301035	-13.794020	 1.031333	-0.062786	-6.967304	 54.931690	 59.886550	-20.836880	-4.700045	 0.893123	-21.507190	-6.813735	 3.220016	-50.548080
 0.479885	-0.177626	 0.738763	 78.823490	 29.320660	 8.945473	 17.389780	-0.607253	-3.446162	-16.425120	 4.511587	-22.613300	-4.157784	 1.051899	-28.384090	-2.481837	 0.280049	-12.873670	-27.240940	-4.946055	-14.369360	 0.090289	-0.011825	-14.918730	-0.835766	 0.048475	-6.638781	-25.747240	-20.018750	-17.605190	 0.315824	-0.050411	-18.138420	 1.105222	-0.078437	-8.118984	-26.194270	-9.966590	-14.181960	-2.495629	 0.302011	-13.798180	 1.032054	-0.063195	-7.007865	 54.549660	 60.002510	-20.418920	-4.663723	 0.884716	-21.471760	-6.685796	 3.124042	-50.051400
 0.479607	-0.177572	 0.738795	 78.757730	 29.345660	 8.933058	 17.345730	-0.613021	-3.478755	-16.368980	 4.491744	-22.587330	-4.069659	 1.034354	-28.510260	-2.499858	 0.285339	-13.021260	-27.248010	-4.929322	-14.463790	 0.081430	-0.010747	-15.032830	-0.850269	 0.049733	-6.694141	-25.723400	-20.023920	-17.635730	 0.316076	-0.050613	-18.195050	 1.099904	-0.078579	-8.172432	-26.154240	-9.971933	-14.222120	-2.490764	 0.301978	-13.823420	 1.032083	-0.063517	-7.043165	 54.473640	 60.027330	-20.324710	-4.633997	 0.879135	-21.473120	-6.638397	 3.101221	-50.042130
 0.479077	-0.177572	 0.738817	 78.648050	 29.414680	 8.932596	 17.275220	-0.618686	-3.511092	-16.302940	 4.452393	-22.450750	-4.069398	 1.037862	-28.604860	-2.620384	 0.298465	-12.993970	-27.235920	-4.903249	-14.641120	 0.109286	-0.014535	-15.151710	-0.832190	 0.048745	-6.704787	-25.682670	-20.033080	-17.705660	 0.304117	-0.048953	-18.290000	 1.095129	-0.078881	-8.239324	-26.123110	-9.969815	-14.349590	-2.501020	 0.305624	-13.931910	 1.038298	-0.064240	-7.080863	 54.352230	 60.039260	-20.326220	-4.603364	 0.871012	-21.417750	-6.615997	 3.084024	-49.946830
 0.478846	-0.177542	 0.738809	 78.580300	 29.449180	 8.938256	 17.222420	-0.618359	-3.509203	-16.315430	 4.411414	-22.155660	-4.170755	 1.049345	-28.233370	-2.720093	 0.301633	-12.652980	-27.200180	-4.891101	-14.763130	 0.171832	-0.022981	-15.237320	-0.798682	 0.047066	-6.744942	-25.649700	-20.040400	-17.754870	 0.319348	-0.051508	-18.325340	 1.111962	-0.079799	-8.209051	-26.078360	-9.975463	-14.401290	-2.494284	 0.305751	-13.974610	 1.050089	-0.064805	-7.062686	 54.358000	 60.029870	-20.375190	-4.574833	 0.865887	-21.424920	-6.580428	 3.074275	-50.044780
 0.478413	-0.177694	 0.738746	 78.508450	 29.389250	 8.934210	 17.143630	-0.621725	-3.528320	-16.257620	 4.337293	-21.769230	-4.142637	 1.037701	-28.114650	-2.658439	 0.297171	-12.754380	-27.028220	-4.876176	-15.084130	 0.327720	-0.044688	-15.530280	-0.679219	 0.040727	-6.863564	-25.614660	-20.049230	-17.876990	 0.323757	-0.052670	-18.480730	 1.138198	-0.081853	-8.226522	-25.904870	-10.001260	-14.546460	-2.438752	 0.302157	-14.123720	 1.114564	-0.069166	-7.101955	 54.369140	 60.014630	-20.453120	-4.481434	 0.848156	-21.423690	-6.518860	 3.056415	-50.202690
 0.478271	-0.177840	 0.738718	 78.496670	 29.298830	 8.924541	 17.097850	-0.629292	-3.571411	-16.152030	 4.284184	-21.608080	-4.142342	 1.042213	-28.234020	-2.635078	 0.294295	-12.742840	-26.931020	-4.889457	-15.131740	 0.427147	-0.058097	-15.490270	-0.615168	 0.036643	-6.817110	-25.610350	-20.052980	-18.074300	 0.271064	-0.044392	-18.601430	 1.125395	-0.080696	-8.202135	-25.814320	-10.010460	-14.692890	-2.403413	 0.301168	-14.282830	 1.178123	-0.073001	-7.091101	 54.492680	 59.962780	-20.669230	-4.477186	 0.848020	-21.440220	-6.426739	 3.027531	-50.412570
 0.478027	-0.178253	 0.738749	 78.490040	 29.039850	 8.907653	 17.065090	-0.639840	-3.631164	-16.101710	 4.333589	-22.033560	-4.485837	 1.189535	-29.689820	-3.139440	 0.367271	-13.341660	-26.804300	-4.907576	-15.189110	 0.499321	-0.067922	-15.492270	-0.602961	 0.035890	-6.813011	-25.754820	-20.025660	-18.241170	 0.209522	-0.034495	-18.700180	 1.128297	-0.080649	-8.176969	-25.746300	-10.016910	-14.811970	-2.343378	 0.293884	-14.294330	 1.200133	-0.073301	-6.990333	 54.884650	 59.818220	-21.233340	-4.499269	 0.853578	-21.474160	-6.453990	 3.065146	-50.771770
 0.477927	-0.178514	 0.738821	 78.508330	 28.837520	 8.895047	 17.047360	-0.645876	-3.665526	-16.016300	 4.380736	-22.512770	-4.423050	 1.213997	-30.682610	-3.131503	 0.381348	-13.883060	-26.785480	-4.919026	-15.142140	 0.511664	-0.069497	-15.468230	-0.578595	 0.034377	-6.799350	-25.837060	-20.008950	-18.257130	 0.185637	-0.030529	-18.680130	 1.123486	-0.080062	-8.152220	-25.699990	-10.028600	-14.777300	-2.306198	 0.288936	-14.280360	 1.209114	-0.073513	-6.958070	 55.236750	 59.701320	-21.656140	-4.495113	 0.853603	-21.494110	-6.416033	 3.061990	-50.988690
 0.477840	-0.179005	 0.738971	 78.547990	 28.411980	 8.862582	 17.014780	-0.646830	-3.671036	-16.033910	 4.860745	-25.691360	-5.686455	 1.826348	-35.586900	-5.105118	 0.785555	-17.484380	-26.608890	-4.978297	-15.005160	 0.506493	-0.068709	-15.450530	-0.512240	 0.030718	-6.864312	-26.119940	-19.953600	-18.541570	 0.125457	-0.020893	-18.908480	 1.245104	-0.089490	-8.221529	-25.508770	-10.068930	-14.760110	-2.247280	 0.283472	-14.376840	 1.238280	-0.074607	-6.895705	 56.476720	 59.289540	-23.056590	-4.450932	 0.845757	-21.507290	-6.600523	 3.258430	-52.509700
 0.477852	-0.179204	 0.738999	 78.562290	 28.198300	 8.841232	 16.987730	-0.645553	-3.663813	-16.195180	 5.172446	-27.399380	-6.627963	 2.308457	-38.370570	-6.396551	 1.116540	-19.783280	-26.560480	-4.989481	-14.999700	 0.446933	-0.060651	-15.456040	-0.527082	 0.031885	-6.922674	-26.225160	-19.933770	-18.766780	 0.139310	-0.023329	-19.014720	 1.285093	-0.092376	-8.222929	-25.418710	-10.083000	-14.834270	-2.293077	 0.290709	-14.448640	 1.215707	-0.072628	-6.837493	 57.102580	 59.059600	-23.822900	-4.543787	 0.863527	-21.510360	-6.842624	 3.462696	-53.642270
 0.477836	-0.179674	 0.738897	 78.563350	 27.943840	 8.815375	 16.952620	-0.645499	-3.663478	-16.738170	 6.000029	-31.431380	-8.323889	 3.321681	-43.450960	-8.817459	 1.882903	-24.064050	-26.388320	-5.019199	-15.045050	 0.310975	-0.042465	-15.551000	-0.577815	 0.035813	-7.092155	-26.300590	-19.919200	-18.917010	 0.227282	-0.038258	-19.111290	 1.328386	-0.095193	-8.196997	-25.273720	-10.101010	-15.037380	-2.388001	 0.302863	-14.454180	 1.159194	-0.067587	-6.673227	 58.129960	 58.653030	-25.138750	-4.737451	 0.915181	-21.855730	-7.356156	 3.853699	-55.250650
 0.477833	-0.179935	 0.738847	 78.571200	 27.814550	 8.800927	 16.918720	-0.649890	-3.688314	-16.739930	 6.489993	-34.409120	-8.918479	 3.913092	-47.311330	-10.256630	 2.470781	-27.022790	-26.298940	-5.030079	-15.098510	 0.221018	-0.030391	-15.657520	-0.625877	 0.039324	-7.190440	-26.354130	-19.908620	-19.012650	 0.237084	-0.040031	-19.165180	 1.334715	-0.095054	-8.146922	-25.238730	-10.100920	-15.163820	-2.430957	 0.308781	-14.475670	 1.143314	-0.065443	-6.551423	 58.546570	 58.446350	-25.835760	-4.889472	 0.953180	-22.049830	-7.676729	 4.107311	-56.245860
 0.478161	-0.180379	 0.738572	 78.558630	 27.687730	 8.795130	 16.897160	-0.675793	-3.835643	-16.372740	 7.529159	-41.538300	-9.231471	 4.715791	-54.045060	-11.334970	 3.176550	-31.220770	-26.110980	-5.059735	-15.168300	-0.000286	 0.000036	-15.882760	-0.748408	 0.048171	-7.364725	-26.565320	-19.866260	-19.407720	 0.134995	-0.023251	-19.545050	 1.245951	-0.089033	-8.174553	-25.220750	-10.083280	-15.533680	-2.549575	 0.327432	-14.634140	 1.084813	-0.060661	-6.401107	 59.491210	 57.954510	-27.432030	-5.135400	 1.008059	-22.197520	-8.084043	 4.476394	-57.893590
 0.478337	-0.180721	 0.738459	 78.548030	 27.688160	 8.784076	 16.918920	-0.690110	-3.916938	-15.501740	 7.807900	-45.744690	-8.496655	 4.628809	-57.099250	-10.866960	 3.134414	-32.094960	-26.020400	-5.076999	-15.182640	-0.157629	 0.022294	-16.100150	-0.843172	 0.054881	-7.448339	-26.667310	-19.844880	-19.526560	 0.096086	-0.016659	-19.673300	 1.213853	-0.086948	-8.193434	-25.226150	-10.076240	-15.635340	-2.588922	 0.334801	-14.734730	 1.012402	-0.055581	-6.284760	 59.974690	 57.728770	-28.090000	-5.315520	 1.039165	-22.108400	-8.390514	 4.748427	-58.953900
 0.478698	-0.181396	 0.738161	 78.537280	 27.661240	 8.759153	 16.971200	-0.742851	-4.216960	-14.145940	 8.095667	-52.062370	-7.492660	 4.401077	-60.811930	-8.431867	 2.538823	-33.461920	-25.909540	-5.099996	-15.188040	-0.359148	 0.052431	-16.611520	-0.947842	 0.063029	-7.608690	-26.826630	-19.810420	-19.550420	 0.123737	-0.021558	-19.763240	 1.148235	-0.081527	-8.122606	-25.201650	-10.073470	-15.773890	-2.676096	 0.352273	-14.995550	 0.906810	-0.048682	-6.146271	 60.562930	 57.406790	-29.054560	-5.590796	 1.103606	-22.316850	-8.829145	 5.156719	-60.509450
